<?xml version="1.0" encoding="UTF-8"?>
<!--Generator: Apple Native CoreSVG 232.5-->
<!DOCTYPE svg
PUBLIC "-//W3C//DTD SVG 1.1//EN"
       "http://www.w3.org/Graphics/SVG/1.1/DTD/svg11.dtd">
<svg version="1.1" xmlns="http://www.w3.org/2000/svg" xmlns:xlink="http://www.w3.org/1999/xlink" width="30" height="15.0439">
 <g>
  <rect height="15.0439" opacity="0" width="30" x="0" y="0"/>
  <path d="M1.09863 15.0439L28.5205 15.0439C29.1357 15.0439 29.6338 14.5459 29.6338 13.916C29.6338 13.3008 29.1357 12.8174 28.5205 12.8174L1.09863 12.8174C0.483398 12.8174 0 13.3008 0 13.916C0 14.5459 0.483398 15.0439 1.09863 15.0439Z" fill="#000000"/>
  <path d="M1.09863 8.64258L28.5205 8.64258C29.1357 8.64258 29.6338 8.15918 29.6338 7.54395C29.6338 6.91406 29.1357 6.41602 28.5205 6.41602L1.09863 6.41602C0.483398 6.41602 0 6.91406 0 7.54395C0 8.15918 0.483398 8.64258 1.09863 8.64258Z" fill="#000000"/>
  <path d="M1.09863 2.25586L28.5205 2.25586C29.1357 2.25586 29.6338 1.77246 29.6338 1.15723C29.6338 0.541992 29.1357 0.0439453 28.5205 0.0439453L1.09863 0.0439453C0.483398 0.0439453 0 0.541992 0 1.15723C0 1.77246 0.483398 2.25586 1.09863 2.25586Z" fill="#000000"/>
 </g>
</svg>
