<?xml version="1.0" encoding="UTF-8"?>
<!--Generator: Apple Native CoreSVG 232.5-->
<!DOCTYPE svg
PUBLIC "-//W3C//DTD SVG 1.1//EN"
       "http://www.w3.org/Graphics/SVG/1.1/DTD/svg11.dtd">
<svg version="1.1" xmlns="http://www.w3.org/2000/svg" xmlns:xlink="http://www.w3.org/1999/xlink" width="29.458" height="27.7881">
 <g>
  <rect height="27.7881" opacity="0" width="29.458" x="0" y="0"/>
  <path d="M0 9.74121C0 15.9814 5.22949 22.1191 13.4912 27.3926C13.7988 27.583 14.2383 27.7881 14.5459 27.7881C14.8535 27.7881 15.293 27.583 15.6152 27.3926C23.8623 22.1191 29.0918 15.9814 29.0918 9.74121C29.0918 4.55566 25.5322 0.893555 20.7861 0.893555C18.0762 0.893555 15.8789 2.18262 14.5459 4.16016C13.2422 2.19727 11.0156 0.893555 8.30566 0.893555C3.55957 0.893555 0 4.55566 0 9.74121ZM2.3584 9.74121C2.3584 5.84473 4.87793 3.25195 8.27637 3.25195C11.0303 3.25195 12.6123 4.96582 13.5498 6.43066C13.9453 7.0166 14.1943 7.17773 14.5459 7.17773C14.8975 7.17773 15.1172 7.00195 15.542 6.43066C16.5527 4.99512 18.0762 3.25195 20.8154 3.25195C24.2139 3.25195 26.7334 5.84473 26.7334 9.74121C26.7334 15.1904 20.9766 21.0645 14.8535 25.1367C14.707 25.2393 14.6045 25.3125 14.5459 25.3125C14.4873 25.3125 14.3848 25.2393 14.2529 25.1367C8.11523 21.0645 2.3584 15.1904 2.3584 9.74121Z" fill="#000000" fill-opacity="0.85"/>
 </g>
</svg>
