<svg xmlns="http://www.w3.org/2000/svg" width="29.458" height="27.788"><path d="M7.512.938a8.208 8.208 0 0 0-3.854 1.357c-.661.436-1.646 1.422-2.095 2.099-1.923 2.899-2.067 6.716-.394 10.49 1.353 3.052 4.001 6.219 7.689 9.196 1.662 1.341 4.504 3.313 5.131 3.56.411.162.835.138 1.273-.072.746-.358 3.481-2.282 5.08-3.575 5.196-4.2 8.207-8.716 8.672-13.006.066-.612.066-1.959 0-2.495-.297-2.401-1.382-4.462-3.066-5.826-2.314-1.873-5.78-2.3-8.461-1.044-.929.436-2 1.303-2.64 2.138-.153.2-.292.363-.309.362-.016-.001-.162-.181-.325-.399-.37-.498-1.03-1.124-1.585-1.504-1.097-.749-2.307-1.172-3.683-1.286C8.301.88 8.174.88 7.512.938m1.915 2.423c1.626.343 2.839 1.212 3.969 2.842.533.769.772.965 1.176.965.262 0 .566-.216.869-.619.909-1.208 1.466-1.799 2.141-2.276 2.29-1.617 5.511-1.294 7.439.745.824.872 1.359 1.986 1.597 3.328.128.721.137 1.914.021 2.627-.291 1.777-1.095 3.61-2.4 5.474-2.01 2.871-5.296 5.94-9.11 8.509-.534.36-.563.372-.689.307-.212-.109-1.784-1.223-2.608-1.846-2.579-1.953-4.956-4.265-6.535-6.356-1.446-1.916-2.391-3.854-2.775-5.695-.119-.567-.134-.749-.137-1.62-.003-.836.014-1.065.109-1.535.471-2.331 1.89-4.026 3.913-4.672.243-.078.608-.166.81-.195.203-.03.424-.064.491-.076.246-.043 1.36.017 1.719.093" fill-rule="evenodd"/></svg>